<svg id="Calque_1" data-name="Calque 1" xmlns="http://www.w3.org/2000/svg" viewBox="0 0 2835 2835"><defs><style>.cls-1{fill:#c04d3e;}.cls-2{fill:#b3cc75;}.cls-3{fill:#ffd04d;}.cls-4{fill:#66a1b4;}.cls-5{fill:#e4bb5e;}.cls-6{fill:#fffdf9;}.cls-7{fill:#e0d698;}.cls-8{fill:#cddea5;}.cls-9{fill:#b9d081;}.cls-10{fill:#8eadab;}.cls-11{fill:#dcd491;}.cls-12{fill:#ddce85;}.cls-13{fill:#dbce85;}.cls-14{fill:#ddcf86;}.cls-15{fill:#dbd38f;}.cls-16{fill:#dcd088;}.cls-17{fill:#ddd492;}.cls-18{fill:#dacf85;}.cls-19{fill:#dace83;}.cls-20{fill:#dbcf87;}.cls-21{fill:#dbce84;}.cls-22{fill:#dccf87;}.cls-23{fill:#dbd087;}.cls-24{fill:#dcce84;}.cls-25{fill:#dccf85;}.cls-26{fill:#d9ce84;}.cls-27{fill:#dbcf86;}.cls-28{fill:#dbcd82;}.cls-29{fill:#dcd697;}.cls-30{fill:#decd83;}.cls-31{fill:#dcce86;}.cls-32{fill:#dbd088;}.cls-33{fill:#dcd28d;}.cls-34{fill:#d9cf84;}.cls-35{fill:#dcd492;}.cls-36{fill:#decd82;}.cls-37{fill:#ddcd83;}.cls-38{fill:#dccf86;}.cls-39{fill:#ddce83;}.cls-40{fill:#d9ce83;}.cls-41{fill:#e0d99d;}</style></defs><path class="cls-1" d="M0,1555.54V1341.63c2.28-2.61,5-4.34,8.6-4.36,17.64-.08,35.27-.81,52.92.68,23.45,2,43.08,13.5,62.55,24.88,95.53,55.84,195.28,102.13,301.27,134.39,49.74,15.14,100,28.28,151.68,35,29,3.76,58.18,6,87.38.81a94.63,94.63,0,0,0,28.34-9.29c17-9,22.48-23,15.81-41.06-5-13.43-14.18-24-23.69-34.29-20.49-22.13-44.77-39.73-69.19-57.12-41-29.18-83.82-55.57-125.24-84.07-37.13-25.55-72.65-53.06-103-86.57-29.5-32.6-54.18-68.32-67.62-110.83a97.78,97.78,0,0,1-4.26-37.47c1.15-14.71,9.94-22.73,24.81-23,14.51-.27,27.28,5.59,40,11.48,23.28,10.81,45.41,23.86,67.46,36.9,36.54,21.6,75,39.1,114.41,54.51,62.07,24.29,117.53,59.21,168.91,101.24,43,35.18,84.41,72.36,129.28,105.25,29.89,21.9,60.51,42.53,96.31,53.89a135.77,135.77,0,0,0,27.26,6.1c33.87,3.44,58-17.34,63.15-52.29,4.36-29.61-.82-58.35-5.11-87.29-3-20-6.71-39.92-7.24-60.38-.9-34.86,15.34-50,47.55-57.3,19.81-4.49,40.32-4.45,60.28-8.19a116.85,116.85,0,0,0,24-6.8c16.82-7.07,23.57-21.42,18.71-39-4.56-16.45-14.14-30-24.68-43-26.08-32.09-58.65-57-91.6-81.3-54.34-40.16-111.58-76.35-163.91-119.26-19.55-16-39-32.24-57-50-12.1-11.91-25.22-22.71-37-35-47.61-49.35-92.89-101-142.53-148.34-39-37.21-81.56-69.59-133.35-87.61-18-6.26-36.46-10.51-55.08-14.27a214,214,0,0,1-30.86-8.24c-30.79-11.2-41.79-38.5-33.78-68.57,7.24-27.19,27.44-44.36,50.53-57.89,39.38-23.09,82.51-35,127.58-40.58,50.05-6.16,99.57-2.72,148.59,8.46,53.82,12.27,99.29,38.28,136,80.33,29.07,33.34,55.92,68.58,87.18,100.06,33.31,33.54,71.28,58.53,117.66,70.11,37,9.24,71.39,25.58,106.1,40.95,28.94,12.81,57.88,25.64,89.46,30.9a67.57,67.57,0,0,0,12.91,1c23.13-.58,36.25-13.61,37.42-36.79,1.27-25.08-2-49.82-4.86-74.62-6.22-54.52-3.64-107.64,23.81-157.17,21.09-38.05,51.42-66.79,88.25-89,52.09-31.42,108.68-50.15,169-57.5,12.47-1.52,25.28-2,37.73,1.49,16,4.45,22.48,16.36,17.3,32.2-3.74,11.4-9.07,22.18-13.74,33.21-9.85,23.33-14.37,46.88-5.25,71.82a70.23,70.23,0,0,0,84.76,43.6c16.89-4.76,32-13.18,47.07-21.66,37.25-21,76.29-38.11,116.31-52.81a505.2,505.2,0,0,0,146-83.21c32.49-26.47,69.39-42.87,110.84-49.54,33.23-5.35,65.63-14.56,98.36-22.24,21.23-5,37.91,2.46,50,20.44a127.15,127.15,0,0,1,12.82,24.82c15.23,39,42,69.07,73,96.08a188,188,0,0,0,35.16,24.47c16.44,8.77,33.44,9.78,51.26,4.76,20.8-5.86,40.89-14.4,62.58-17,36.48-4.36,73-4.29,109.62-1.63q6.49.46,13,.48c48.59.19,97.21,1,145.55-5.52a16.92,16.92,0,0,1,10.69,1.69,6.56,6.56,0,0,1,2.32,2.06c2.29,4.76.22,9-1.48,13.37-17,43.59-39.33,84.33-64.95,123.39-21,32-44.35,62.46-60.63,97.35-1.27,2.73-2.85,5.3-5.79,6.64a62.33,62.33,0,0,1-21.77,2.15c-40.34-2.24-79.53,4.76-118.64,13.68-27.23,6.2-54.71,11-83,10.63-18.79-.23-35.24-5.71-50.88-15.22-17.78-10.82-33-24.71-47.47-39.49-18.9-19.24-37.93-38.35-60.36-53.65-29.46-20.1-60.17-21-92-6.26-29.36,13.6-54.34,33.31-78,55-20.88,19.13-39.95,40-60.17,59.76-44.31,43.18-89.33,85.77-141.23,120.14-38.07,25.22-79.85,33-124.89,27.94-33.31-3.76-65.29-13-97.32-21.92-31.37-8.7-61.54-9-91.67,4.46-18.27,8.19-38,12.37-57.18,17.78-23.11,6.52-45.36,15.49-68.1,23.07-42.44,14.13-85.2,11.88-128.24,3.22-23.49-4.73-46.67-10.87-70.46-14.31-30.6-4.42-41,6.39-33,36.2,6.73,25,19.6,47.32,33,69.17,26.92,43.8,58.73,84,92.44,122.68,28,32.15,57,63.25,86.2,94.3,22.1,23.53,43.72,47.58,66.86,70,23.64,22.93,47.94,45.21,71.63,68.11,39.38,38.08,67.93,83.42,89.69,133.4,8.79,20.18,17.58,40.28,22.87,61.74,1.61,6.53,2,13.09,2.23,19.78.7,19.71-10.08,24.32-28.29,19.78-10-2.49-19-7.81-28-13-32-18.5-64-37-100.55-45.67-41-9.71-80.61-4.63-119.62,9.31a57.39,57.39,0,0,0-14.85,8.16c-9.88,7.34-11,17.18-2.88,26.65a77.52,77.52,0,0,0,17.37,14.92c21.13,13.49,43.94,23.66,66.69,34,38.22,17.28,77.4,32.74,111.84,57.26,21.58,15.36,40.32,33.69,54.23,56.54a39.49,39.49,0,0,1,4.95,12c2.27,10.06-3.31,18.21-13.64,19a234.56,234.56,0,0,1-39.93-.22c-21.29-2.1-42.5-2.27-63.66,1.54-31.81,5.73-56.22,22.82-75.5,48.23-32.62,43-66.22,85.15-105.37,122.51-24.48,23.36-51,43.85-83.09,55.94-9.05,3.41-18.33,6.07-28.13,6.27-21.3.44-33-8.09-38.37-28.92-4.81-18.74-4.8-38.25-8.1-57.27-8.61-49.53-26.58-95-60.34-132.84-20.38-22.85-45.81-39.45-73.76-52.06-26.43-11.92-54.18-18.87-83.05-19.71-21.72-.63-43.09,3.74-63.9,9.91-34.22,10.13-68.69,19.26-104.34,22.29A881.14,881.14,0,0,1,709,1652.74c-21.91-1.35-43.81-2.5-65.69-4.35-35.18-3-70.06-8-104.94-13.19-90.33-13.46-178.68-36.75-268.23-54.06-29.75-5.75-59.8-9-90-11.35-34.14-2.61-68.34-4.27-102.46-7.17-20.56-1.74-41.3-.33-62-.47C9.41,1562.11,3.77,1561.23,0,1555.54Z"/><path class="cls-2" d="M0,2515.13V2091.31c2.93-3.89,7.12-4.52,11.59-4.54,38.31-.11,76.66-1,114.94.32q49.85,1.74,99.69,3.85c50.84,2.2,101.69,4.16,152.53,6.15,37.23,1.46,74.47,2.55,111.69,4,36.56,1.47,73.14,3,109.7,3.3,57,.43,112.59-9.17,166.85-26.87,32.91-10.73,65.83-21.67,100.48-25.7,14.21-1.65,28.37-3.58,42.76-3.2,39,1,77.7-3.62,116.42-7.43,21.37-2.11,42.6.76,63.79,2.24,33.55,2.33,67,3.12,100.48-.18,49.5-4.87,96.82-17.88,142.63-36.77,44.72-18.43,84.67-44.64,122.21-74.87,28.24-22.73,53.78-48.79,84.14-68.9,52.81-35,97.43-32.68,146.13,8,44.07,36.8,79.8,81,111.67,128.44,24.54,36.56,45.66,75,66.12,114,18,34.17,33.89,69.41,54.69,102.1,19.81,31.15,43.55,58,76.93,75.09,29.38,15.08,60.24,14.91,91.61,8.88,29.68-5.71,57.27-17.66,84.62-29.87,42.61-19,84.14-40.25,123-66.26,34.91-23.38,66-51,86.73-88.21,12.69-22.87,20.48-47,10.36-73.62-5.87-15.45-16.95-26.13-29.71-35.38-24.37-17.65-52.15-29.45-77.93-44.7-25.3-15-49.67-31.11-69.67-53-7.74-8.48-13.87-17.89-16.61-29.18-2.9-12,2.92-19.43,15.22-19.93,6.12-.26,11.9,1.32,17.69,2.82,26.45,6.89,53,13.9,80.58,12.72,18.65-.8,37.17-3.35,53.3-14.3,13.31-9,18.22-22.73,17.14-37.35-4.17-56.79-29.75-102.82-73.08-139.31-30.08-25.34-64.12-45.45-94.17-70.79-23.64-19.93-46.49-40.63-67.57-63.46-58.29-63.13-121.65-120.34-197.06-162.95-42.28-23.89-77.64-56.17-108.31-93.46-30.24-36.76-65.82-67.66-102.74-97.28-36.06-28.94-73.56-56.21-105.32-90.2-7.56-8.08-14.56-16.53-19.6-26.36-10.44-20.32-3.72-36.87,18-44.07,17.21-5.72,35.16-7.59,53.14-7.77,40.65-.41,81.3-.24,122-.1,45.38.15,90.25-5.65,135.15-11.14,32-3.92,64.15-7,96.21-10.5s63.79-9.88,95.24-17.3c38.23-9,76.44-17.3,116-19.54,37.68-2.13,74.35,2.38,110.8,10.4,42.59,9.36,85.34,18.2,126.83,32,52.44,17.43,98.61,44.95,136.37,85.67,21.37,23,39,48.81,54.49,76.17,26.4,46.75,46.38,96.66,71.08,144.24a875.13,875.13,0,0,0,58.92,97.33c5,7.18,10.47,13.84,19.62,16,3,.73,5.26,2.81,7.32,5.06v64c-7.94,5.75-14.87,5.11-23.16-1.83-9.86-8.26-17-18.8-23.87-29.36-22.94-35.12-45.77-70.3-66.48-106.82-18.43-32.48-34.63-66.07-51.5-99.33-17.47-34.46-34.87-69-57.92-100.19-26.6-36-59.44-63.66-103.58-75.73-22.77-6.23-45.82-7-69.29-4.83q-30.27,2.88-60.65,5c-22.9,1.61-45.74,3.48-67.67,11.44-34.61,12.56-50.19,42.89-46.1,78.27,5,43.35,23.49,81.75,44.13,119.15,31.28,56.63,61.57,113.54,78.64,176.54,8.12,30,20.51,58.41,34.12,86.3,3.12,6.4,8.34,13.55,1.88,20.26s-13.68,1.73-20.15-1.47c-26.46-13.1-49.68-30.62-71.36-50.67-34.16-31.58-60.23-69.14-84.18-108.54-23.68-39-52.23-73.18-94.12-94-30.65-15.21-63-25.08-96.59-31.42-13.42-2.53-26.88-4.8-40.64-3.93s-17.85,8.23-10.74,20c8.5,14.05,19.32,26.31,31.39,37.34q40.52,37.05,80.73,74.42c23.92,22.25,46.69,45.6,69.89,68.54a665.25,665.25,0,0,0,111.63,88.63c36.21,23,68.3,50.92,97.27,82.43,11.25,12.23,21.6,25.3,32.07,38.21a460.17,460.17,0,0,0,51.14,53.15,446,446,0,0,1,65.12,72.84c22.35,31.19,43.53,63,55.73,99.9,16.54,50.07,16,100.11.76,150.18-17.35,56.93-47.5,106.15-90.79,147.06-27.74,26.22-59.45,47-92.47,66-45.77,26.25-93.85,47.32-143.17,65.92-45.85,17.29-89.42,39.75-133.4,61.25-52.69,25.75-105.88,50.47-163.35,64-33.65,7.93-67.65,11.08-102,4.14s-61.66-25.49-84.39-51.67c-37.47-43.14-57.07-93.84-65.32-149.82-4.48-30.32-10.59-60.45-25.74-87.74-5.33-9.59-11-18.89-20.06-25.81-17.76-13.58-37.68-14-58.12-9.68-24.74,5.25-48.92,13.08-74,16.8-32.32,4.78-64.64,5.74-97.43,4.14-84.34-4.1-167.84.4-247.42,33.27-28.79,11.89-55.51,27.46-81.41,44.43-64.62,42.35-131.2,81.57-196.25,123.22-18.44,11.81-36.16,24.88-49.94,42.54-12.71,16.29-20.64,34-20,55.08.37,12,.16,24,0,36-.27,24.83-9.34,38.67-32.66,47-18.67,6.65-38.19,7.9-58,6.62-65-4.18-128-21.38-192.46-28.38q-34.17-3.7-68.66-4.69c-45.89-1.35-91.77-3.07-137.66-4.31q-57.84-1.56-115.68-3.88c-33.62-1.31-67.29-.16-100.81-2.2-25-1.51-49.93-.44-74.85-1.6-21.61-1-43.2-2.28-64.84-2C6.4,2519.68,2.7,2518.61,0,2515.13Z"/><path class="cls-2" d="M2808.74,374.32c-9.4-1-18.63,1.06-27.84,2.08-45.19,5-90.5,4.15-135.77,3-23.65-.61-47.29-1.05-70.94-1.19-30.91-.17-61.05,4.12-90.18,14.87a168.22,168.22,0,0,1-26,7.24c-15,2.94-29.12.24-42.73-6.14C2400.7,387.31,2388,377.6,2376,367a393.58,393.58,0,0,1-37.29-37.57,201.92,201.92,0,0,1-35.18-57.77c-3.62-9-7.65-17.75-13.12-25.79-10.86-16-25.51-22.92-44.77-18.48-8.75,2-17.5,4.11-26.15,6.54-27,7.56-54.51,12.59-82,17.77a214.2,214.2,0,0,0-90.53,40.09c-5.85,4.41-11.88,8.61-17.55,13.24C1989.47,337.6,1945,361.91,1896.85,380s-94.8,39.12-139.53,64.51c-14,7.92-28.79,14.07-45,15.45-38.28,3.24-70.22-25.26-78.6-58-4-15.57-3.12-31,1-46.4,3.23-11.95,8.27-23.2,13.26-34.47,3-6.7,6.09-13.34,8-20.44,3.58-13.31-1-21-14.46-24.55-10.16-2.7-20.58-2.8-30.79-1.64-72.86,8.28-140.35,31.28-199.19,75.95-42.36,32.16-70.46,74.13-80.85,126.9-4.64,23.61-5.57,47.42-4,71.55,1.8,28.58,7.42,56.82,7.26,85.54-.05,9,.23,18-2.22,26.79-4.14,14.87-13.38,24-28.62,27.37-12.44,2.71-24.54.86-36.62-1.78-28.18-6.16-54.36-17.84-80.52-29.52-31.63-14.12-63.1-28.63-96.51-38.27-10.88-3.14-21.75-6.31-32.51-9.82-33.41-10.89-60.8-31.28-85.93-55.1-26.66-25.28-49.9-53.63-73.27-81.86-14-16.94-28.32-33.6-44.43-48.68-32.1-30-70.56-47.18-112.76-57.15a417.55,417.55,0,0,0-97-11.48c-55.29.1-108.69,10.32-158.91,34.28-19.06,9.1-36.61,20.54-50.26,37.12-9.11,11.06-15.38,23.38-16.56,37.84-2,24.76,9.24,42.6,32.42,51.49A174.49,174.49,0,0,0,482,524c47.59,8.56,91.47,26,130.89,54.26a572.75,572.75,0,0,1,63.47,53.29c28.08,27.07,54.59,55.65,81.21,84.13C806.5,768.1,856.67,819.16,912.78,864c38.81,31,79.78,59.07,120.44,87.53,32.22,22.54,64.15,45.47,93.63,71.59,18.26,16.17,35.37,33.4,49.06,53.74,6,8.89,11,18.2,14,28.61,5.78,20.67-1.22,36-20.81,44.94-12,5.43-24.77,7.56-37.68,9.3-15.51,2.08-31.19,2.86-46.55,6a116.66,116.66,0,0,0-14.45,3.88c-20,6.87-29.61,19.74-30.88,40.83-1.14,18.79,2.09,37.17,5.14,55.58,4.61,27.91,9.78,55.79,8.7,84.28-.51,13.38-2.53,26.53-7.89,38.94-9.39,21.78-26.28,33-49.68,34.25-20.47,1.13-39.52-4.92-58-12.75-23.44-9.9-44.9-23.31-65.69-37.85-37.74-26.38-72.59-56.4-107.87-85.87-29.4-24.56-58.93-49-90.51-70.76-30-20.71-61.66-38.53-95.51-51.93a1209.66,1209.66,0,0,1-174.52-86.17A245,245,0,0,0,364.14,1059c-6.87-2.58-13.85-4.86-21.27-5.17q-21.3-.87-23.09,20.28c-1,12.17,1.37,23.89,5.06,35.39,10,31.17,26.51,58.79,46.4,84.54,29.41,38.09,65.52,69,104.36,96.9,33.28,23.93,67.92,45.85,102,68.55,30.24,20.12,60.3,40.5,88,64.12,12.69,10.84,24.6,22.47,34.77,35.77,5.7,7.44,10.66,15.31,13.57,24.31,5.86,18.09.35,33-16,42.78-14.37,8.57-30.32,11.71-46.72,13.13-42,3.62-83.11-2.45-123.92-11.07-99.21-21-194.2-54.34-285.76-97.78-47.3-22.44-92.64-48.52-138.32-74a114.29,114.29,0,0,0-57.31-15c-15.3.1-30.6-1.6-45.91-.13v-84c2.13-2.17,4.37-4.54,7.66-4,18.52,2.93,37.24.37,55.82,2.33,24.07,2.55,42.62,16.21,61.4,29.43a1058.72,1058.72,0,0,0,117.3,72.15,938,938,0,0,0,137.5,59c32.2,10.81,65,19.83,98.85,24a71.3,71.3,0,0,0,21.92-.31c12.57-2.41,15.65-9.17,9-20-5.95-9.73-13.76-17.94-22.46-25.29-31.31-26.42-64.68-50.19-97.25-75-38.49-29.29-74.87-61-107.5-96.72-37.15-40.66-70.55-84.2-95.32-133.74-17.67-35.32-31.64-72.08-36.55-111.46-2.34-18.72-3.2-38,1.36-56.65,5.93-24.35,23.26-37.24,48.38-38.21,24.08-.92,46,6.58,67.3,16.21,52.76,23.8,99.9,57.06,148.16,88.46,39.93,26,80.11,51.57,126,66.43,32.25,10.46,65.14,16.56,99.18,14.82,19.66-1,38.79-5.89,58.27-8.22,16.51-2,33.07-4,49.7-3.58,19,.44,37.52-2.36,54.3-11,34.57-17.73,70.25-17.34,107.09-10,30.35,6,60.36,13.84,91.1,17.85,7.2.94,15.87,3.59,20.34-3.52,4.67-7.43-3.24-13-7.39-17.92-11.36-13.58-25.72-24.07-39.51-35-36-28.55-72.77-56-108-85.51-43.49-36.37-83.14-76.76-123.05-116.88-26.77-26.91-51.95-55.37-79.5-81.52C640.12,691,615.67,669,585.69,654.19c-34.69-17.14-68.16-15-100.54,6-11.74,7.59-23.24,15.61-35.63,22.09-25.1,13.13-50.55,12.39-75.93.77-35.52-16.25-63.91-41.4-89.24-70.73-32-37-56-78.51-70.67-125.18-10.05-32-15.37-64.84-14-98.38,1.58-38.67,11.85-75.39,26.79-111,16.22-38.66,28.64-78.91,48.39-116.09C320.55,75.57,391.35,23.36,487.53,8.09c58-9.21,116-7.49,172.46,12.06,40.83,14.14,76.69,36.76,110.36,63.26,35.57,28,69.17,58.32,102.86,88.52,24.82,22.25,51.55,42.1,79.15,60.71,48.53,32.73,83.32,75.55,101.65,131.78,10.6,32.51,27,62.32,50.23,87.83,11.94,13.1,25.08,24.91,41.75,31.76,17.35,7.12,29.69,3.31,41-11.94,11-14.78,18.93-31.34,27.78-47.34,33.6-60.78,81.23-107.29,141.48-141.44,59.46-33.7,124.18-52.77,189.85-69.33,55.9-14.1,112.52-24.52,169.91-29.89,35.43-3.31,71.06-4.83,106.62-.45,2,.25,4,.45,5.92.89,31.08,6.86,40.75,27,27.09,55.61-5.9,12.36-14,23.47-19.85,35.8-6.69,14-2.53,20.94,12.86,21.47,34.62,1.18,64.39-11.7,91.49-31.94,18.92-14.13,35.95-30.63,55.49-44,28.8-19.7,60.77-33.16,92.58-46.75,27.29-11.65,51.55-27.58,73.84-46.89a380.14,380.14,0,0,1,54.82-39.89c26.46-15.7,46-37.95,62.13-63.74,5.52-8.82,9.29-19.51,20.15-24h130c6.59,3.8,10.61,9.9,14.58,16.1a427.09,427.09,0,0,0,43.14,56.17c23.23,25.75,52.53,36.5,86.36,36.93,30.62.38,61.22.65,91.85,1.75,51.63,1.86,103-3.27,154.31-9,5.66-.63,11.42-1.34,15.61,4V284.07a2.63,2.63,0,0,0,0,4V813.85c-4.2,4.24-8.7,1.85-12.95.35-24.72-8.72-48.57-19.4-70.83-33.29-6.4-4-12.75-6.61-20.35-6.67-4.42,0-9.78.28-10.43-6.41a6.91,6.91,0,0,1,5.5-3.93c-22.38-19.24-45.73-38.32-57.12-67.77-9.71-25.13-7.89-50.14-.07-75.24,1.28-4.11,4.17-6.68,7.64-8.83,10.1-23.72,23.74-45.4,38.16-66.66,20.76-30.59,41.56-61.14,59.09-93.79,13.41-25,24.68-50.92,35.15-77.23,4-9.33,6.67-19.15,10-28.74C2815.42,355.21,2812.81,365,2808.74,374.32Z"/><path class="cls-3" d="M2720.76,768.17a18.45,18.45,0,0,0,10.69,1.76c8.47-.92,15.2,2.42,22.17,6.82,25.4,16,53,27.31,81.34,37.1v621.74c-11.95.37-20.82-4.44-27.91-14.32a859.68,859.68,0,0,1-49.08-77.65c-27-47.6-47.42-98.41-72.52-146.93-13.95-27-29.45-53-48.31-76.86a304.14,304.14,0,0,0-92.26-78.36c-28.47-15.79-58.69-27.07-90.05-35.12-43.54-11.18-87.13-22.34-131.57-29.47-32-5.13-64.15-5.29-96.45-1.78-37.9,4.11-74.58,13.91-111.58,22.29a763,763,0,0,1-93.65,14.68c-32.1,3.18-64.09,7.54-96.18,11-23.15,2.47-46.27,5.19-69.51,6.91-52.92,3.93-105.88,1.06-158.82,1.67-16.69.19-33.26,1.27-49.66,4.32-8.18,1.53-16.33,3.36-23.46,8.09-9.35,6.2-12.4,14.28-9,25,3.89,12.4,11.88,22.28,20.47,31.62,16.94,18.42,35.7,34.9,55.18,50.58,29,23.38,58.8,45.89,87.06,70.23a553.08,553.08,0,0,1,66.6,67.43c30.11,36.56,64.91,67.63,105.62,92.16,32.8,19.76,65.31,40.06,95.1,64.32,16.53,13.46,32.77,27.25,47.75,42.45,22.45,22.77,44.94,45.49,67.07,68.58a625,625,0,0,0,91.59,78.6c20.16,14.18,40.35,28.29,59.31,44.1,39.33,32.78,65.12,73.61,73.7,124.45,1.64,9.71,3.13,19.53,1.57,29.74-2.94,19.27-14,31.22-31.43,37.91-20.95,8-42.74,9.31-64.92,7.3-20.67-1.86-40.65-7-60.64-12.14-5.47-1.42-10.91-3.13-16.68-2.91-8.66.35-12.1,4.54-10.27,13,2.47,11.42,8.82,20.74,16.56,29.2,14.73,16.12,32.25,28.76,50.45,40.61,25.17,16.38,52.41,29.06,78.29,44.19,10.92,6.38,21.41,13.36,30.65,22.22,22.3,21.38,27.59,47,19.6,76-5.67,20.59-16.48,38.46-29.76,55-24.75,30.75-55.09,54.91-88.79,75.08-51.28,30.69-104.54,57.31-161,77.12-26,9.13-52.88,13.48-80.55,11.47-21.11-1.54-40.11-9.15-57.78-20.42-27.26-17.4-47.47-41.46-64.7-68.39-16.39-25.58-29.55-52.89-43.26-79.92-31.67-62.45-65.2-123.78-108.36-179.29-23.76-30.57-49.38-59.42-79.26-84.22-10.27-8.52-21.17-16.15-33.25-22-27.89-13.5-55.82-13.51-83.84-.46-20.44,9.52-38.11,23.12-55.2,37.53-26.21,22.09-51.59,45.17-79.27,65.52-46.68,34.31-98,59.06-153.46,75.39a477.81,477.81,0,0,1-94,17.79c-32.19,2.77-64.43,2-96.67-.86-29.84-2.61-59.69-3.41-89.63.71a464.9,464.9,0,0,1-72.7,4.42c-45.48-.92-89.38,7.21-132.51,21.14-34.54,11.16-69.2,22.07-105.18,27.85-16.76,2.68-33.61,4.38-50.57,5.55a581.08,581.08,0,0,1-61.88,1.3c-44.25-1.64-88.52-2.51-132.76-4.08q-50.39-1.79-100.76-3.93c-32.58-1.35-65.17-2.6-97.75-4-34.92-1.5-69.87-2.28-104.75-4.12-46.63-2.46-93.23-1.15-139.84-1.5v-245.9c3.2-4.28,7.85-4.5,12.59-4.55,41.94-.46,83.81.79,125.7,3.41,29.52,1.84,59.11,3.2,88.66,4.76,37.18,2,74.41,2.74,111.57,5.42,20.22,1.46,40.58,1.32,60.83,1.8,29.95.7,59.95,1.48,89.78,3.19,28.25,1.62,56.51,1,84.77,2.64,31.1,1.8,62.44-1.17,93.67-2.73,23.94-1.2,47.75-3.37,71.54-6.26,50-6.07,99.11-16.52,147.6-30.08,36.6-10.24,72-24,108.26-35.32,18.13-5.63,36.48-9.1,55.91-7.33,35.57,3.24,59.44,31.72,66.56,61.57,3.4,14.22,3.76,28.78,3.24,43.51-.65,18.23-2.33,36.61,1.61,54.76,3.35,15.45,12.9,26,26.41,33.3,24.68,13.34,51.56,13.53,78,10.23,74.22-9.25,136.85-43.72,192.77-91.86,28.77-24.76,54.78-52.5,83.44-77.36,21-18.18,42.85-35.4,70-43.19,38-10.9,73.87-3.7,107.55,15.86,37.91,22,68.22,52.75,97.47,84.87,36.7,40.29,68.3,84.32,97.43,130.16,26.42,41.6,49.57,85.17,75.3,127.19,15.4,25.14,33.16,48.5,56.28,67,36.1,28.86,76.63,35.34,120.49,21.25,43.17-13.87,83.34-33.74,118.95-62,13.61-10.79,25.29-23.73,33.66-39.19,12.5-23.1,9.34-46.05-8.63-65.19-17-18.06-36.53-33.13-56.87-47-55.38-37.8-99.5-85.73-134-143.16-23.14-38.49-46.68-76.87-76.6-110.75-9.27-10.49-18.79-20.94-29.61-29.7-38.59-31.23-64.77-70.89-83.06-116.59s-34.63-92.24-47.41-139.93c-6.85-25.56-18.35-49.22-31.35-72.21-14.43-25.5-28.21-51.36-42.21-77.1-20.93-38.48-51.18-68.52-85.42-95.15-40.73-31.69-83.55-60.62-123.37-93.48-46.55-38.42-91.25-78.72-127-127.84-9.24-12.69-17.56-25.92-21.92-41.24-5.62-19.72,2.24-33.6,22-38.38,7.76-1.87,15.62-3.4,23.66-3.47,47-.36,93.59-4.8,140.12-11.3,28-3.92,56.31-4.45,84.62-5.09,33.53-.76,67.19-1.16,100.47-6.59,57.22-9.34,107.47-34.45,153.7-68.34,36.3-26.6,68.65-57.87,102.33-87.58,39.92-35.21,76.67-73.92,118.6-106.89a155.06,155.06,0,0,1,38.92-22.14c26.31-10.44,50.85-6.28,74.13,8.94,17.79,11.62,32,27.17,46,42.73,25.53,28.47,49.11,58.64,75,86.92,21.71,23.77,45.3,45,72.68,61.83,13.89,8.54,28.5,15.9,44.62,19.68,25.31,5.92,41.32,0,56.27-21.3,10.65-15.17,22.77-28.56,40.32-36.08,12.78-5.47,26.37-7.09,39.9-8.32,22.62-2.05,45.22.49,67.8,1.93C2716.84,763.85,2719.67,764.71,2720.76,768.17Z"/><path class="cls-4" d="M2720.76,768.17c-22-.37-43.88-2.85-65.9-2.14a182.63,182.63,0,0,0-31.7,3.64c-17.59,3.68-32.28,12.21-43.59,26.27-4.38,5.45-8.71,11-12.7,16.7-13.74,19.78-32.74,24.89-55.32,20.12-22.24-4.7-41.85-15.17-60.37-27.9-30.45-20.94-55.86-47.31-79.92-75.06-21.82-25.16-43.24-50.68-65-75.86a189.74,189.74,0,0,0-29-27.45,139.12,139.12,0,0,0-14.92-10c-20.31-11.6-41.44-13.35-63.42-5-14.16,5.39-26.81,13.31-38.79,22.41-19.13,14.55-36.46,31.15-54,47.48-44.88,41.74-89.8,83.46-136.47,123.22-36,30.64-75.31,56.06-119.21,74-29.85,12.19-61,18.71-93.05,21.44-31.23,2.66-62.53,2.94-93.83,3.64a628.81,628.81,0,0,0-77.57,6.56c-41.6,6.12-83.42,8.66-125.39,9.69-9.68.24-19.31,1.31-28.55,4.28-13.7,4.4-19,13.74-15.84,27.86,2.35,10.52,7.19,20,12.77,29.17,15.72,25.77,35.56,48.21,56.52,69.71,44.58,45.72,94.54,85.06,146,122.65,26.35,19.27,52.8,38.41,77.63,59.67,25.8,22.1,47.74,47.34,64.19,77.17q26.55,48.12,53,96.32c11.43,20.87,18.93,43.26,25.15,66.14,12.69,46.66,29.21,92,47.54,136.7,16.23,39.6,39.67,73.72,72,101.77,34.27,29.72,62.25,64.74,86.18,103.16,12.32,19.79,25.24,39.21,37.47,59.06,28.72,46.6,65.59,85.41,110.09,117.22,16.79,12,33,24.83,49.33,37.47a149.11,149.11,0,0,1,23,22.09c18.21,21.72,20.5,43.37,7.13,68.43a104.31,104.31,0,0,1-20.39,27c-44,41.47-96.21,67.83-154.82,80.86-43.69,9.71-81.44-4.6-113.88-34.31-17.07-15.63-31-33.84-43.62-53.17-20.73-31.85-38.67-65.35-58-98-33.76-57.21-70.72-112.13-115-161.82-23.54-26.39-48.12-51.7-76.69-72.8-14.81-10.92-30.54-20.24-47.8-26.77-39.07-14.77-76.34-11.55-111.79,11-20.34,13-38.37,28.72-55.93,45.1-25.57,23.85-50,49-77.21,71-46.25,37.45-97.61,64.67-156.11,77.33-28.9,6.25-58,8.42-87.09,1.16a91.39,91.39,0,0,1-10.43-3.41c-26.24-10.12-39.67-29.38-40-57.39-.18-14,.6-28,1-41.95.49-17.09-.65-33.94-6.85-50.12-12.73-33.23-41.51-51-77-47.87-17.45,1.52-34,6.29-50.39,12-41.81,14.59-83.63,29.12-126.73,39.64a1017.29,1017.29,0,0,1-154.54,25.5c-69.53,5.94-139.07,5.53-208.68,2.23-30.61-1.46-61.27-1.9-91.89-3.13-54.92-2.2-109.84-4.24-164.74-6.85-78.5-3.72-156.9-10.62-235.61-8.64V1555.54c5.2,1.55,10.57,1.33,15.87,1.29,44.36-.32,88.54,2.93,132.74,6.06,24.58,1.75,49.17,3.27,73.67,6,36.47,4.12,72.31,11.64,108.06,19.61,65.64,14.65,131.28,29.31,197.69,40.15,47,7.67,94.2,13.84,141.76,17.08,33.91,2.31,67.83,3.7,101.82,3.77,55,.12,108.94-6.5,161.58-22.91,17.48-5.44,35.27-9.75,53.64-11.42,27-2.46,53.19,1.17,78.77,9.58,74.85,24.6,124.64,74.42,149.88,149,8.59,25.39,13.37,51.51,16,78.09.92,9.28,1.88,18.56,4.12,27.63,4.7,19,16.25,27.24,35.84,25.46,13.09-1.19,25.32-5.51,37.13-11.12,23.73-11.26,44.45-26.87,63.49-44.71,34.85-32.67,65.86-68.8,94.71-106.82,7.65-10.08,15.38-20.09,23.63-29.72,24-28,55-41.09,91.25-43.1,21-1.16,41.93,1.07,62.87,2.3a122.44,122.44,0,0,0,19-.09c10.09-1,13.21-6.12,10.13-15.84-2.45-7.74-6.93-14.38-11.75-20.78-19.62-26-44.94-45.27-73.24-60.86-25.12-13.84-51.5-25.06-77.65-36.75-20.68-9.24-41.35-18.51-61.08-29.71-10.16-5.77-20.08-11.88-28.24-20.43-13.15-13.77-11.77-26.89,4.31-37.32,16.56-10.75,35.5-14.82,54.54-18.42,45.91-8.69,89.39-1,131.07,19.29,17.39,8.46,34,18.26,51,27.6,6.41,3.54,12.91,6.94,19.53,10.07a64.56,64.56,0,0,0,12.16,4.49c13.54,3.32,19.76-1.65,19.77-15.45,0-10.81-2.78-21.1-6.19-31.22-26-77.47-66.13-145.85-127.81-200.81-51.55-45.93-98.51-96.5-145.46-147-37.21-40-73.9-80.5-107.13-124-21.67-28.35-42.11-57.53-59.13-89-8.89-16.42-17.13-33.14-21.38-51.53a59.69,59.69,0,0,1-1.6-15.84c.44-12.19,6.13-19.14,18.15-21.56,7.9-1.59,15.9-1.09,23.87,0,23.48,3.12,46.27,9.62,69.49,14.06,21.29,4.07,42.63,7.34,64.41,7.24,18.13-.09,36.13-1.8,53.18-7.72,44-15.29,88.77-28.39,133.13-42.66,3.49-1.12,6.93-2.42,10.3-3.85,22.65-9.6,45.94-10.42,69.55-4.73,26.54,6.4,53,13.31,79.47,19.77a271.73,271.73,0,0,0,43.42,6.54q60.36,4.68,111.27-28.12c20-12.82,38.25-27.8,56.4-43,37.36-31.22,72.57-64.74,106.47-99.68,23.67-24.41,48-48.16,75.56-68.26,17.85-13,36.59-24.4,57.94-30.83,25.23-7.61,49.33-5.08,72.27,8.11a174.23,174.23,0,0,1,32.73,24.49c12.84,12.12,25.45,24.48,38,36.86,8.32,8.18,17.07,15.87,25.87,23.53,27.73,24.14,59.75,32,95.81,26.61C2510,631,2537.1,625.7,2564,619.56c27.47-6.25,55.24-8.54,83.33-7.92,9.66.21,19.32.29,29,.42-3.8,12.7-8.08,25.27-9.25,38.6-2.62,29.92,7.39,55.44,27.12,77.46a223,223,0,0,0,36,32.78c2.3,1.65,5.17,2.89,6.33,6.54C2731.16,769.07,2725.84,767,2720.76,768.17Z"/><path class="cls-3" d="M2299.15.19c-13,21.75-25.93,43.48-43.07,62.34a154.53,154.53,0,0,1-34.89,28.14c-23.46,14.17-45.06,30.84-65.81,48.62-19.17,16.43-40.6,29-63.62,39-23.8,10.42-47.77,20.46-70.63,32.9-25.06,13.62-46.64,31.94-68.27,50.22-23.83,20.15-50.42,34.65-81.62,39.69a111.07,111.07,0,0,1-28.9.7c-13.09-1.31-18.28-10.48-13.38-22.88,3.69-9.34,9.48-17.56,14.53-26.18,5.21-8.91,10.45-17.82,12.76-28.08,3.26-14.51-1-23.64-14.2-30.44-11.89-6.12-24.9-7.42-37.83-7.92a687.81,687.81,0,0,0-112.56,5.28,1218.67,1218.67,0,0,0-245.77,56.77c-48.13,16.56-93.53,38.6-134.08,69.9A347.44,347.44,0,0,0,1219.46,426c-7.92,14.27-15.06,29-24.15,42.58a96.59,96.59,0,0,1-10.46,13.34c-10.79,11.27-23.68,13-37.61,7.91-19.29-7.07-33.88-20.72-47.5-35.55-26-28.33-41.6-62.53-54.24-98.16-15.5-43.72-41.61-79.15-78.77-106.91-21.88-16.34-44.78-31.26-66.15-48.3-17.71-14.13-34.54-29.25-51.49-44.26C809,121,769.22,85,723.7,56.21A313.4,313.4,0,0,0,593,9.75c-13.6-1.68-27.34-3-40.79-2.78C482.52,8,416.81,23.3,359.94,66.24c-33.77,25.5-59.38,58.06-79.6,95-15.89,29-26.72,60.25-38.67,91-7.73,19.85-16.3,39.39-22.83,59.72a290.65,290.65,0,0,0-13.33,66.37c-4.14,52.17,7,101.2,28.63,148.23,19,41.34,45.5,77.44,78.43,108.74,18.43,17.52,38.72,32.5,62.07,43.12,27.91,12.7,54.77,11.65,80.84-4.92,12.08-7.69,24.06-15.58,36.5-22.63,30.87-17.5,62.28-16.52,93.91-1.83,20.14,9.35,37.75,22.46,54.51,36.76,26.64,22.73,51,47.87,75,73.33,30.13,32,61.17,63.18,92.66,93.85,36.06,35.1,74.75,67.2,114.47,98.07,27.85,21.66,56.21,42.7,82.76,66,7.8,6.84,15,14.24,20.44,23.12,6.73,11,3.54,17.47-9.4,19.16-10.4,1.37-20.63-.78-30.72-2.72-25.82-5-51.51-10.69-77.34-15.62a325.32,325.32,0,0,0-35.58-4.86c-21.36-1.67-41.82,2.6-61.1,11.86a143.91,143.91,0,0,1-64.75,14.15c-26-.24-51.73,3.43-77.32,8.15-37.69,7-74.85,3.68-111.71-6.18-44.33-11.86-84-33.48-122.32-57.9-36.81-23.43-72.65-48.36-110.14-70.72-29.5-17.58-59.38-34.39-92.75-43.84A105.62,105.62,0,0,0,197,887.76c-18,1.13-30.69,10.16-37.95,26.53a62.46,62.46,0,0,0-5.2,22.27,231.74,231.74,0,0,0,7.09,71.26c13.59,51.55,37.28,98.22,67.8,141.62a710.48,710.48,0,0,0,98,111.72c28.06,26.1,58.36,49.53,89.09,72.4,24.84,18.49,49.79,36.85,73.3,57,8.86,7.62,17.1,15.88,23.71,25.58,11.07,16.27,5.91,27.19-13.84,29-13.36,1.25-26.59-.47-39.72-2.87-45.76-8.36-89.58-23.11-132.62-40.41a934.55,934.55,0,0,1-204.91-113.41c-27.84-20.42-57.17-32.14-91.85-29.11-10,.88-19.89-1.47-29.87-1.78V599.94c3.2-4.26,7.86-4.31,12.59-4.65,14.7-1,29.22,1.8,43.85,1.9,26.74.18,41.24-10.93,48.8-36.73,4.35-14.84,5.35-30.13,5.89-45.4.58-16.3.51-32.65.07-49-1.62-60.09,7.16-118.62,23.64-176.4,26.21-91.87,54-183.29,78.12-275.78,1.48-5.67,3.55-10.73,9-13.73h793.71c24.82,8,43.87,25.92,66,38.56,29.26,16.73,58.69,32.72,91.73,40.64,37.75,9,75.21,5,112.46-3.33,57.06-12.77,111.39-33.3,164.46-57.52,15.92-7.26,31.4-15.95,49.17-18.35Z"/><path class="cls-1" d="M1849.32,2835H1253.54c-54.37-11-107.72-26.78-163.39-31.77-53.34-4.78-106.68-9-160.17-11.79-45.5-2.34-91-4.1-136.54-6-44.52-1.86-89.05-3.57-133.54-6q-91.14-5-182.16-12c-37.8-3-75.58-5.9-113.45-8-48.8-2.65-97.59-5.58-146.42-8q-65.76-3.26-131.54-6.14c-24.89-1.11-49.91-.52-74.73-3.61C7.23,2741.15,3,2740.9,0,2737V2617.09c2.93-3.89,7.12-4.49,11.59-4.55,42.61-.58,85.16,1.36,127.69,3.59,2.33.13,4.66.36,7,.27,30-1.14,59.9,1.47,89.82,2.5q70.78,2.46,141.54,5.95c37.2,1.78,74.46,2.66,111.57,5.9,38.81,3.39,77.2,10.06,115.58,16.6,69.37,11.81,139.06,20.68,209.57,16.81,50.95-2.79,100.61-12.38,144.7-40.27,29.18-18.46,49.05-43.14,47.72-79.91-.52-14.38-5.22-28.1-8.29-42.08-2.63-12-5.44-23.94-4.44-36.46,1.48-18.41,11.4-32.38,23.23-45.31,15.55-17,33.68-31.22,51-46.29,21.09-18.34,41.94-36.93,62.79-55.54,30.53-27.25,60.44-55.34,97.56-74,31.68-15.89,65.29-24.3,100.41-28,50.74-5.38,99.56,1.85,146.88,20.38,34.59,13.54,52.55,39.38,52.48,76.64-.08,51.73-14,99.91-33.25,147.05-15.24,37.33-35.14,72.51-50.77,109.66a137,137,0,0,0-9.22,30.55c-2.6,15.52,1.47,29,12.09,40.54,19.58,21.23,44.2,35.33,70,47.18,37.59,17.3,77.41,25.55,118.77,28.44,65.5,4.57,128.61-7.46,191-25.06,75.76-21.37,146.25-55.23,215.42-92.22,41.69-22.3,82.45-46.27,124.59-67.8,36.66-18.74,75.68-31.19,113.88-45.91,88-33.91,171.84-75.73,246.92-133.58,23.46-18.08,45.13-38.35,68-57.2a95,95,0,0,1,13.12-9.09c12.78-7.36,23.3-1.85,24.57,12.76,1.94,22.45-2.35,44.48-4.56,66.63-.84,8.49-2.65,17.77,5.22,22.9,8.15,5.31,16-.75,22.83-5.42,55.66-38.07,88.28-91.1,101.27-156.76,5.83-29.45,7.42-59.39,10.31-89.18,2.92-30.13,6.59-60.18,10.66-90.18,7.52-55.4,16.36-110.61,24.82-165.87,7.19-47-6.66-88.8-30.72-128.23-37.7-61.76-90.1-107.79-152.23-143.93-31.66-18.41-64.61-34.47-95.57-54.16-33.42-21.26-59.3-49-77.35-84.2-14.59-28.46-26.68-58.1-41.21-86.59-19.53-38.29-41.68-75.11-62.12-112.88-11.29-20.86-21.58-42.12-27.07-65.33-10.1-42.69,5.8-69.69,48.78-77.54,42.17-7.7,84.71-14.61,127.91-12.66,28.24,1.28,51.84,13.93,72.23,32.64,22.84,20.95,39.47,46.74,54.57,73.49,33.39,59.14,63,120.37,99.07,178q37.88,60.57,78.32,119.46c7.85,11.43,15.62,23.67,31.76,25,2,.17,3.15,2.32,4.63,3.64V2107.3a24.56,24.56,0,0,0-8,15.6c-2.54,23.7-3.25,47.39,5.16,70.33a12.61,12.61,0,0,0,2.82,4v62c-6.54,7.37-10.45,16.27-13.58,25.36-16.15,46.87-43.31,86.53-77.87,121.65-30.35,30.85-61.92,60.43-94,89.48-58,52.63-119.78,100.43-188.59,138.45-56.09,31-115.15,54.06-179,62.75-35.72,4.86-71.91,5.83-107.25-2.34-38.06-8.8-73.88-2.2-109.46,10.74-30.68,11.16-60.58,24.21-90,38.26-29.81,14.24-57.66,31.62-82,54.47-10.17,9.56-20.57,18.91-30.37,28.86C1859,2830.92,1853.75,2832.13,1849.32,2835Z"/><path class="cls-4" d="M2835,1547.54c-13.74,2.16-23.93-3.48-31.74-14.41-4.26-6-8.75-11.76-12.89-17.8-54.89-80-105.89-162.33-150-248.88-15.57-30.56-32.09-60.66-52.78-88.22a192.39,192.39,0,0,0-28.48-30.72c-26.52-22.77-57.47-31.56-91.9-28.11-32.77,3.28-65.52,6.92-98,12.49a90.72,90.72,0,0,0-14.43,4c-27.39,9.56-39.23,29.74-34.6,58.38,3.28,20.31,11.21,39,20.14,57.26,11.56,23.66,24.81,46.41,37.87,69.25q33.27,58.17,60.67,119.29c3,6.69,6.37,13.2,9.42,19.86,18.75,41,48.22,72.22,86.86,95.15,22.07,13.09,45,24.71,67.25,37.36,26.09,14.8,51.73,30.32,75.69,48.45a393.85,393.85,0,0,1,105.52,120c17.1,30,28,62,27,97-.62,22.64-5.06,44.93-8.51,67.29-8.36,54.26-17.05,108.47-23.25,163-4.32,38-7.84,76.1-12,114.13-7.43,68.56-36.32,126.05-88.93,171.16-8.37,7.17-17.15,13.81-27.15,18.57-17.71,8.42-26.86,2.92-27.15-16.75-.22-14.67,2.61-29.15,4.44-43.67a202.16,202.16,0,0,0,1.38-29.91,31.75,31.75,0,0,0-.42-5c-1.83-9.76-6.87-12.45-15.69-8.12A79.59,79.59,0,0,0,2597,2299.9c-19,16.18-37.75,32.74-57.08,48.56-48.48,39.66-102.13,71.13-158.19,98.7-41.28,20.3-83.39,38.69-127.06,53.22-47,15.63-91.23,37.11-134.23,61.41-49.88,28.18-99.83,56.24-151.72,80.63-62.58,29.42-127.05,53.42-194.89,67.65-40.21,8.44-80.84,13.31-122,12.26-53.29-1.35-104.4-12-151.91-37.2a292.29,292.29,0,0,1-38-23.94,132.22,132.22,0,0,1-18.51-16.72c-11.89-12.95-15.79-28.24-12.91-45.35,2.91-17.27,10-33.12,17.33-48.81,11.49-24.41,23.45-48.59,34.74-73.09,17.78-38.57,31.47-78.47,38.07-120.6a237.93,237.93,0,0,0,2.82-52.77c-1.55-23.56-12.05-41.88-32.53-54.17a167.35,167.35,0,0,0-34.66-15.25A308.16,308.16,0,0,0,1340,2219.7q-97.54,6.3-171,71.33c-44.31,39.4-89,78.4-133.39,117.67a208.64,208.64,0,0,0-20.84,21.51c-14.9,17.58-19.23,37.42-14.19,59.75,3.22,14.28,7.43,28.32,9.72,42.84,5,31.57-4.79,57.78-27.9,79.31-21.7,20.22-48,32.2-75.88,40.88-45.36,14.1-92,17.43-139.22,16.66-54.78-.89-108.75-9-162.66-17.65-38.12-6.14-76.13-13.21-114.63-16.39-32.19-2.67-64.49-3.75-96.76-5.08-51.91-2.13-103.79-4.79-155.68-7-27-1.16-53.93-1.88-80.89-2.78-38.94-1.31-77.88-2.75-116.83-3.84-13.28-.37-26.6-1.3-39.89.19v-102c39,.75,77.91,1.18,116.85,2.33,34.62,1,69.26,1,103.85,2.32,23,.89,45.94.73,68.89,1.76,42.57,1.91,85.16,3,127.76,4.06q51.9,1.23,103.76,3.88a890.4,890.4,0,0,1,110,12.59c37.37,6.57,74.6,14.07,112.34,18.24,24.5,2.7,49.13,4.1,73.3-3a87.41,87.41,0,0,0,10.28-3.81c16.41-7.16,24.46-20,24.72-37.66.15-10.66.28-21.35-.44-32-2.4-35.18,13.91-61.3,39.21-83.42,23.21-20.29,49.36-36.31,75.67-52,54.95-32.77,108.91-67.1,162.43-102.1,57.12-37.35,119.66-59.27,186.94-68.65,38.42-5.36,77-5,115.66-4.3,13,.22,25.93,1.3,38.9,1.68,43.61,1.26,86.29-4.81,128.28-16.49,13.12-3.65,26.3-7,40.07-8,24-1.79,43.06,6.58,57.32,25.66,16.13,21.56,23.86,46.66,29.63,72.51,5.72,25.67,8.57,51.92,15.6,77.32,12.83,46.4,36.66,86.36,71.9,119,25.43,23.56,56.47,34.57,91,36.11,36.81,1.63,72.19-5.94,107-17,33.38-10.63,65.63-24.17,97.22-39.24q51.86-24.74,103.49-50c35.72-17.33,73.31-30.1,109.84-45.46,55.12-23.19,107.92-50.74,156-86.64,59.06-44.12,98.94-101.91,120.07-172.42,21.34-71.2,11-138.34-27.87-201.27-24.61-39.81-51.87-77.76-87.13-108.85-31.19-27.48-57.29-59.35-83.91-90.9a407,407,0,0,0-77-70.81c-23.7-16.68-48-32.54-71.4-49.59-30.52-22.21-57.39-48.65-83.87-75.4-24.14-24.39-48.92-48.13-74-71.51-22.4-20.88-45.55-41-67.45-62.38a145.38,145.38,0,0,1-22.22-26.9,47.07,47.07,0,0,1-3.85-7c-5.08-12.48-.66-20.37,12.62-22,13.69-1.63,27.31.08,40.75,2.46,33.93,6,66.94,15.27,98,30.24a209.49,209.49,0,0,1,77.39,63.27c12.68,16.78,24.07,34.38,35,52.28,22.21,36.29,48,69.66,80.11,97.81,19.86,17.42,41.16,32.79,65.22,44,4.11,1.91,9,5.76,12.93,2.24,4.2-3.81.11-8.84-1.86-12.71-17.85-35.2-31.06-72.14-42.16-109.94-13.9-47.3-36.23-90.84-60.06-133.72-18.28-32.92-36.18-66-48-102-4.81-14.65-8.24-29.63-9.21-44.91-2.44-38.42,13.94-67.06,51.84-80.4a167.52,167.52,0,0,1,40-8.41c30.79-2.9,61.62-5.41,92.45-7.9,61.24-5,112.42,15.61,153.91,60.82,22.73,24.77,39.94,53.23,55.4,82.81,16.52,31.58,32.48,63.45,48.67,95.2,20.13,39.52,42.77,77.58,66.81,114.82,10.65,16.51,21.72,32.75,32.62,49.1,1.48,2.21,3.08,4.35,4.69,6.47,7.3,9.62,16.44,15.47,29.07,14.13Z"/><path class="cls-5" d="M1849.32,2835c10.84-13.14,23.84-24.11,36-36,37.68-36.93,84.14-59.18,131.79-79.51,23.9-10.2,47.94-20,73-27,25.75-7.15,51.6-9.29,78-3.91,15.32,3.12,30.75,5.73,46.44,6.54,54.43,2.78,106.71-7.56,157.64-25.86,61.63-22.14,117.53-54.89,170.57-92.85,49.94-35.75,95.93-76.19,140.43-118.4,19.33-18.34,38.83-36.5,57.39-55.64,21.87-22.56,41.72-46.67,56.56-74.58,7.36-13.85,13.26-28.33,19-42.91,2.42-6.19,5.17-12.27,8-18.27,2.12-4.41,5.28-7.73,10.79-7.43V2731c-1.26,1.24-2.46,2.55-4.37,2.78a11.52,11.52,0,0,1-2.69.06,11.06,11.06,0,0,1-3.81-1.39,9.58,9.58,0,0,1-2.14-1.55c-2-2.23-4.66-3.53-7.16-5.05-2.29-2-4.47-4.06-6.8-6a21.59,21.59,0,0,0-5.67-4.57,11.1,11.1,0,0,1-2.09-1.34,39,39,0,0,0-4.06-2.62,11.79,11.79,0,0,1-2.23-1.16c-1.18-.58-2.27-1.27-3.38-2-12.61-8.27-25.22-5.62-37.82-.06a10.58,10.58,0,0,1-2.47,1c-1.59.51-3.23.92-4.83,1.42a10.88,10.88,0,0,1-2.33.74c-1.52.45-3.05.87-4.57,1.39a12.5,12.5,0,0,1-2.45.79,20.65,20.65,0,0,0-7.18,3.36,24.52,24.52,0,0,1-4.88,2.17,23.89,23.89,0,0,0-9.2,4,64.64,64.64,0,0,1-8.57,4.08,27.92,27.92,0,0,0-9.51,4c-5.55,3.33-11.93,4.82-17.56,8-2,.8-4.13,1.48-6.23,2.11-1.61.6-3.15,1.39-4.79,1.89s-3.18,1.05-4.77,1.6a11,11,0,0,1-2.35.8c-1.14.41-2.31.7-3.48,1a11.45,11.45,0,0,1-2.28.67c-1.49.4-3,.8-4.43,1.32a10.89,10.89,0,0,1-2.19.81c-1.09.43-2.21.75-3.32,1.09a11.77,11.77,0,0,1-2.23.7c-1.48.42-3,.8-4.47,1.22a11.13,11.13,0,0,1-2.26.62,34,34,0,0,0-5.55,1.73,11.35,11.35,0,0,1-2.32.86c-1.59.52-3.21.94-4.82,1.4a11.64,11.64,0,0,1-2.51.61c-2.1.34-4.2.71-6.28,1.16a12.19,12.19,0,0,1-2.54.45,57.17,57.17,0,0,0-7.45,1.4,11.85,11.85,0,0,1-2.57.34c-3.42-.09-6.64,1.07-9.92,1.8a12.36,12.36,0,0,1-2.62.43c-3.57.13-6.93,1.34-10.37,2.13a11.77,11.77,0,0,1-2.76.44,51.44,51.44,0,0,0-10.89,1.62,11.84,11.84,0,0,1-2.82.5,52.67,52.67,0,0,0-11.1,1.5,11.86,11.86,0,0,1-2.84.52,52.8,52.8,0,0,0-11.11,1.46,11.87,11.87,0,0,1-2.83.52,53.12,53.12,0,0,0-11,1.4,10.66,10.66,0,0,1-2.8.42,36.45,36.45,0,0,0-12.07,1.22,11.56,11.56,0,0,1-2.75.27c-4.08-.4-7.92.92-11.83,1.73a11.78,11.78,0,0,1-2.76.34c-4.17-.16-8.07,1.25-12.08,2.08a11.49,11.49,0,0,1-2.78.48,47.6,47.6,0,0,0-10.87,1.49,11.25,11.25,0,0,1-2.74.58,53.89,53.89,0,0,0-9.37,1.37,11.68,11.68,0,0,1-2.68.53,43.25,43.25,0,0,0-9.05,1.38,10.79,10.79,0,0,1-2.56.58,36.78,36.78,0,0,0-7.36,1.32,12,12,0,0,1-2.42.63,46.94,46.94,0,0,0-5.85,1.28,10.56,10.56,0,0,1-2.31.63c-1.51.36-3,.69-4.5,1.17a11.87,11.87,0,0,1-2.23.8,39.53,39.53,0,0,0-5.61,2.29c-20,6.76-37.29,17.94-52.29,32.62-3.63,3.55-8.47,5-12,8.48Z"/><path class="cls-4" d="M221.92.19C207.06,47.85,197.2,96.91,182,144.48c-17.51,54.86-31.83,110.64-47.67,166-13,45.37-18.44,91.92-18.64,139.08-.08,20.65.06,41.3,0,61.95,0,14.33-.94,28.62-3.73,42.72a76.37,76.37,0,0,1-9,24.25c-9,15.26-22,23.85-40.11,23.32-15-.44-29.94-1.25-44.92-1.76-6-.21-12-.07-18-.08V.19Z"/><path class="cls-5" d="M0,2737c18,.68,35.93,1.26,53.88,2.07,41.23,1.87,82.5,2.82,123.7,5.52,17.27,1.14,34.59,1.5,51.87,2.44,32.24,1.74,64.46,3.71,96.7,5.44q20.43,1.11,40.88,2.2c36.9,1.91,73.71,4.84,110.53,7.91,21.55,1.79,43.15,3,64.73,4.52,26.56,1.83,53.12,3.77,79.69,5.44,13.28.84,26.59,1.38,39.88,2.07,38.23,2,76.5,3.18,114.76,4.78,46.89,2,93.8,3.64,140.67,6.11,48.19,2.55,96.37,5.48,144.43,9.83,60.82,5.5,120.92,14.91,179.16,34,4.4,1.45,9.12,2.2,12.66,5.61H0Z"/><path class="cls-3" d="M2835,106.14c-18.29.39-36.35,3.49-54.57,4.73-10.26.7-20.46,2.37-30.73,2.91-32.52,1.7-65.11,3.71-97.64,1.79-24.27-1.43-48.51-.92-72.76-1.42a238.31,238.31,0,0,1-37.64-3.48c-18.2-3.31-33.75-12.06-47.25-24.39-25.79-23.55-45.33-52-63.73-81.41-.85-1.35-1-3.11-1.53-4.68H2831c4.29,9.6.56,20.27,4,30Z"/><path class="cls-2" d="M2345.14,2835c.49-3.95,3.43-6.27,5.94-8.88a143.24,143.24,0,0,1,57.87-37.07c1.67-1.88,4.52-.18,6.21-2l-.08,0c1.68-1.89,4.5-.22,6.22-2,.55,0,1.1,0,1.65,0,1.75-1.84,4.57-.19,6.35-1.94l1.66,0c2.4-2.23,5.89.15,8.31-2l1.69,0c3.08-2.44,7.17.35,10.27-2,.56,0,1.13,0,1.69,0,3.12-2.4,7.2.35,10.33-2l1.73,0c3.77-2.61,8.47.49,12.25-2l1.74,0c4.43-2.71,9.73.64,14.16-2l-.08,0c4.4-2.71,9.67.64,14.07-2l-.06,0c4.42-2.73,9.7.6,14.13-2l1.68,0c3.81-2.53,8.51.51,12.33-2l1.7,0c3.79-2.55,8.48.5,12.29-2,.57,0,1.15,0,1.72,0,3.79-2.57,8.48.49,12.29-2,.57,0,1.15,0,1.72,0,3.78-2.59,8.48.49,12.28-2,.57,0,1.14,0,1.71,0,3.74-2.6,8.43.52,12.19-2l-.08,0c3.69-2.63,8.37.54,12.07-2l-.08,0c3-2.48,7.07.38,10.08-2l-.08,0c2.36-2.25,5.84.14,8.23-2l1.6,0c1.72-1.82,4.53-.18,6.26-2H2629c2.28-2.28,5.77.18,8.06-2.06l-.08,0c1.63-1.89,4.45-.18,6.1-2l-.09,0c1.61-1.92,4.44-.19,6.08-2l-.08,0c1.61-1.93,4.44-.2,6.08-2l-.08,0c1.6-1.94,4.45-.18,6.07-2.06l-.08,0c1.67-1.92,4.56-.19,6.24-2.08,1.2-.63,2.4-1.26,3.61-1.88,1.71-2,4.66-.21,6.39-2.12l17.57-7.88c3.29-1.86,7.14-2.31,10.45-4.13l7.51-3.87c3.33-1.84,7.18-2.34,10.53-4.13l3.39-1.88c3.31-1.73,7.08-2.27,10.36-4.07l-.1.05c1.62-1.92,4.48-.16,6.1-2.07l-.12.06c1.64-1.89,4.5-.16,6.13-2.06l-.13.06c14.08-4.71,28.22-6.47,42.54-1,2.21.33,3.69,2,5.57,3l-.09-.06c1.92,1.52,4.14,2.56,6.08,4.05l-.06-.05c3,1.87,5.32,4.68,8.62,6.1q2.68,2.63,5.36,5.26a49.1,49.1,0,0,0,8.06,6.67l-.09-.05c1.1,1.22,3,.88,4.12,2.06l-.13-.06c1.58,2,4.49,0,6.06,2v102Z"/><path class="cls-4" d="M1499.45.19c-5.68,4.19-12.36,6.45-18.63,9.44-52.88,25.28-106.69,48.16-163.42,63.5-27.64,7.47-55.48,13.64-84.19,15.6-33.19,2.26-64.9-3.3-95.55-15.86-19.14-7.84-37.25-17.65-55-28.17C1062,32.49,1041.94,19.47,1022.12,6c-2.4-1.62-5.5-2.6-6.49-5.83Z"/><path class="cls-5" d="M2835,2197.27c-5.83-.9-8.24-5.24-9.77-10.14-2.28-7.29-4.12-14.74-4.26-22.42-.22-11.27-.11-22.56-.08-33.84a43.11,43.11,0,0,1,3.55-16.44c1.93-4.66,4.91-7.91,10.56-7.13Z"/><path class="cls-6" d="M2835,30.17c-4.64-9.55-4.76-19.71-4-30,1.25.82,4.09-1.95,4,2C2834.87,11.51,2835,20.84,2835,30.17Z"/><path class="cls-7" d="M2835,2733c-2.27.07-4.39-.31-6.06-2l6.06,0Z"/><path class="cls-8" d="M2835,288.07c-1.45-1.34-1.4-2.67,0-4Z"/><path class="cls-9" d="M2808.74,374.32c2.66-13,7.7-25.11,12.19-37.44.06,8.21-7.33,30.15-12.18,37.5Z"/><path class="cls-9" d="M2826,322.28c.5,3.55-.54,5.91-2.84,8.62C2822.5,327.22,2823.17,324.75,2826,322.28Z"/><path class="cls-10" d="M2582.64,1685.69c-8.58-.87-10.31-1.82-16.88-9.1C2571.75,1678.79,2577.62,1681.24,2582.64,1685.69Z"/><path class="cls-11" d="M2792.74,2705.14c-14.6-4.38-29.21-2.61-43.82-.06,15.35-7.33,30.7-8.58,46.06,0A1.34,1.34,0,0,1,2792.74,2705.14Z"/><path class="cls-12" d="M2507.12,2771c-4.35,3-9.32,1.72-14.07,2C2497.39,2769.94,2502.38,2771.32,2507.12,2771Z"/><path class="cls-13" d="M2521.19,2769.05c-4.38,3-9.37,1.72-14.13,2C2511.42,2768,2516.42,2769.32,2521.19,2769.05Z"/><path class="cls-14" d="M2493.13,2773c-4.38,3-9.38,1.71-14.15,2C2483.35,2772,2488.35,2773.31,2493.13,2773Z"/><path class="cls-15" d="M2825,2729.05a10,10,0,0,1-8.06-6.67C2820.28,2723.81,2823.3,2725.63,2825,2729.05Z"/><path class="cls-16" d="M2737,2709c-2.8,3-6.39,4-10.35,4.07A14.74,14.74,0,0,1,2737,2709Z"/><path class="cls-17" d="M2811.58,2717.12c-4-.38-6.73-2.68-8.62-6.1C2807,2711.46,2809.23,2714.35,2811.58,2717.12Z"/><path class="cls-18" d="M2723.29,2715a14.88,14.88,0,0,1-10.52,4.13A14.68,14.68,0,0,1,2723.29,2715Z"/><path class="cls-19" d="M2705.25,2723a14.72,14.72,0,0,1-10.44,4.13A14.56,14.56,0,0,1,2705.25,2723Z"/><path class="cls-20" d="M2591.1,2759.05c-3.71,2.78-8,1.82-12.19,2C2582.62,2758.26,2587,2759.2,2591.1,2759.05Z"/><path class="cls-21" d="M2603.09,2757c-3.67,2.78-8,1.87-12.07,2C2594.68,2756.25,2599,2757.19,2603.09,2757Z"/><path class="cls-22" d="M2577.2,2761.07c-3.75,2.74-8.11,1.8-12.28,2C2568.67,2760.25,2573,2761.2,2577.2,2761.07Z"/><path class="cls-22" d="M2563.2,2763.08c-3.76,2.73-8.11,1.78-12.29,2C2554.66,2762.26,2559,2763.2,2563.2,2763.08Z"/><path class="cls-23" d="M2549.19,2765.07c-3.76,2.74-8.12,1.78-12.29,2C2540.65,2764.26,2545,2765.19,2549.19,2765.07Z"/><path class="cls-24" d="M2535.2,2767.06c-3.78,2.74-8.14,1.81-12.33,2C2526.64,2766.26,2531,2767.17,2535.2,2767.06Z"/><path class="cls-25" d="M2477.23,2775.07c-3.74,2.73-8.08,1.8-12.25,2C2468.72,2774.25,2473.06,2775.19,2477.23,2775.07Z"/><path class="cls-26" d="M2613.09,2755c-3,2.46-6.59,2-10.08,2C2606,2754.56,2609.6,2755.09,2613.09,2755Z"/><path class="cls-20" d="M2463.25,2777.08c-3.1,2.4-6.77,1.88-10.32,2C2456,2776.59,2459.69,2777.09,2463.25,2777.08Z"/><path class="cls-27" d="M2451.23,2779.06c-3.09,2.41-6.73,1.91-10.27,2C2444,2778.59,2447.68,2779.07,2451.23,2779.06Z"/><path class="cls-28" d="M2637.07,2749c-2.33,2.07-5.19,2.08-8.06,2.06C2631.35,2749,2634.2,2749,2637.07,2749Z"/><path class="cls-26" d="M2621.24,2753.07c-2.42,2-5.32,2-8.23,2C2615.4,2752.94,2618.32,2753,2621.24,2753.07Z"/><path class="cls-29" d="M2803,2711.07a7.56,7.56,0,0,1-6.08-4.05A6.88,6.88,0,0,1,2803,2711.07Z"/><path class="cls-25" d="M2439.27,2781.07c-2.44,2-5.38,2-8.31,2C2433.39,2781,2436.33,2781,2439.27,2781.07Z"/><path class="cls-30" d="M2649.08,2745.05c-1.69,1.66-3.84,2-6.08,2A8.24,8.24,0,0,1,2649.08,2745.05Z"/><path class="cls-31" d="M2643.09,2747.05c-1.71,1.66-3.86,2-6.1,2C2638.7,2747.41,2640.84,2747.06,2643.09,2747.05Z"/><path class="cls-32" d="M2629.1,2751.07c-1.77,1.66-4,1.95-6.26,2A8.75,8.75,0,0,1,2629.1,2751.07Z"/><path class="cls-33" d="M2743,2707c-1.69,1.69-3.83,2.08-6.1,2.07C2738.63,2707.39,2740.77,2707,2743,2707Z"/><path class="cls-28" d="M2677.23,2735a9.28,9.28,0,0,1-6.39,2.12A9.11,9.11,0,0,1,2677.23,2735Z"/><path class="cls-34" d="M2667.23,2739a9.08,9.08,0,0,1-6.24,2.08C2662.74,2739.38,2664.93,2739,2667.23,2739Z"/><path class="cls-35" d="M2749.05,2705c-1.7,1.69-3.85,2.07-6.13,2.06C2744.6,2705.32,2746.78,2705,2749.05,2705Z"/><path class="cls-36" d="M2655.08,2743.05c-1.7,1.66-3.83,2-6.08,2A8.25,8.25,0,0,1,2655.08,2743.05Z"/><path class="cls-37" d="M2661.07,2741c-1.69,1.66-3.82,2-6.07,2.06A8.27,8.27,0,0,1,2661.07,2741Z"/><path class="cls-38" d="M2429.3,2783.08c-1.82,1.59-4,1.93-6.35,1.94A8.74,8.74,0,0,1,2429.3,2783.08Z"/><path class="cls-39" d="M2421.3,2785.06a9,9,0,0,1-6.22,2C2416.83,2785.39,2419,2785,2421.3,2785.06Z"/><path class="cls-40" d="M2415.16,2787c-1.76,1.63-3.92,2-6.21,2A8.7,8.7,0,0,1,2415.16,2787Z"/><path class="cls-41" d="M2792.74,2705.14l2.24-.1,2.05,2A7,7,0,0,1,2792.74,2705.14Z"/><path class="cls-7" d="M2829,2731.06a5.9,5.9,0,0,1-4.12-2.06A5.52,5.52,0,0,1,2829,2731.06Z"/></svg>